<svg width="16" height="17" viewBox="0 0 16 17" fill="none" xmlns="http://www.w3.org/2000/svg">
<rect y="0.5" width="16" height="16" rx="4" fill="#0090E3"/>
<path d="M7.71875 11.7189C7.62551 11.8153 7.51382 11.8919 7.39034 11.9443C7.26687 11.9966 7.13412 12.0236 7 12.0236C6.86589 12.0236 6.73314 11.9966 6.60966 11.9443C6.48618 11.8919 6.3745 11.8153 6.28125 11.7189L3.3125 8.59386C3.13024 8.3927 3.0293 8.13094 3.0293 7.85949C3.0293 7.58804 3.13024 7.32628 3.3125 7.12512C3.40575 7.02872 3.51743 6.95206 3.64091 6.89971C3.76439 6.84736 3.89714 6.82038 4.03125 6.82038C4.16537 6.82038 4.29812 6.84736 4.42159 6.89971C4.54507 6.95206 4.65676 7.02872 4.75 7.12512L7.03125 9.50012L11.2813 5.06262C11.4685 4.8775 11.7211 4.77368 11.9844 4.77368C12.2476 4.77368 12.5003 4.8775 12.6875 5.06262C12.8698 5.26378 12.9707 5.52554 12.9707 5.79699C12.9707 6.06844 12.8698 6.3302 12.6875 6.53137L7.71875 11.7189Z" fill="white"/>
</svg>
